<svg width="105" height="28" viewBox="0 0 105 28" fill="none" xmlns="http://www.w3.org/2000/svg">
<path d="M2.016 23H5.712V17.96H8.52C12.288 17.96 15.312 15.944 15.312 12.056V12.008C15.312 8.576 12.888 6.2 8.88 6.2H2.016V23ZM5.712 14.672V9.536H8.568C10.416 9.536 11.568 10.424 11.568 12.08V12.128C11.568 13.568 10.488 14.672 8.64 14.672H5.712ZM17.7353 8.72H21.5753V5.48H17.7353V8.72ZM17.8313 23H21.4793V10.136H17.8313V23ZM24.9054 23H28.5534V15.824C28.5534 14.096 29.4414 13.208 30.8334 13.208C32.2254 13.208 33.0414 14.096 33.0414 15.824V23H36.6894V14.672C36.6894 11.72 35.0814 9.896 32.3214 9.896C30.4734 9.896 29.3934 10.88 28.5534 11.96V10.136H24.9054V23ZM45.6186 26.888C48.1146 26.888 49.9626 26.36 51.1626 25.16C52.2426 24.08 52.7946 22.4 52.7946 20.096V10.136H49.1466V11.816C48.1626 10.736 46.9866 9.896 44.9946 9.896C42.0426 9.896 39.2826 12.056 39.2826 15.896V15.944C39.2826 19.76 41.9946 21.944 44.9946 21.944C46.9386 21.944 48.1146 21.152 49.1946 19.856V20.48C49.1946 22.784 48.0186 23.984 45.5226 23.984C43.8186 23.984 42.4986 23.552 41.1786 22.808L39.9306 25.544C41.5626 26.408 43.5306 26.888 45.6186 26.888ZM46.0506 18.92C44.2746 18.92 42.9306 17.72 42.9306 15.944V15.896C42.9306 14.144 44.2746 12.92 46.0506 12.92C47.8266 12.92 49.1946 14.144 49.1946 15.896V15.944C49.1946 17.696 47.8266 18.92 46.0506 18.92ZM64.5979 23.288C69.7819 23.288 73.5499 19.376 73.5499 14.6V14.552C73.5499 9.776 69.8299 5.912 64.6459 5.912C59.4619 5.912 55.6939 9.824 55.6939 14.6V14.648C55.6939 19.424 59.4139 23.288 64.5979 23.288ZM64.6459 19.88C61.6699 19.88 59.5579 17.48 59.5579 14.6V14.552C59.5579 11.672 61.6219 9.32 64.5979 9.32C67.5739 9.32 69.6859 11.72 69.6859 14.6V14.648C69.6859 17.528 67.6219 19.88 64.6459 19.88ZM76.4445 23H80.0925V15.824C80.0925 14.096 80.9805 13.208 82.3725 13.208C83.7645 13.208 84.5805 14.096 84.5805 15.824V23H88.2285V14.672C88.2285 11.72 86.6205 9.896 83.8605 9.896C82.0125 9.896 80.9325 10.88 80.0925 11.96V10.136H76.4445V23ZM97.4936 23.288C99.8216 23.288 101.55 22.376 102.75 20.888L100.662 19.04C99.6536 19.976 98.7656 20.36 97.5416 20.36C95.9096 20.36 94.7576 19.496 94.3976 17.84H103.35C103.374 17.504 103.398 17.168 103.398 16.88C103.398 13.232 101.43 9.896 97.1336 9.896C93.3896 9.896 90.7736 12.92 90.7736 16.592V16.64C90.7736 20.576 93.6296 23.288 97.4936 23.288ZM94.3496 15.56C94.6376 13.904 95.6216 12.824 97.1336 12.824C98.6696 12.824 99.6296 13.928 99.8456 15.56H94.3496Z" fill="#051727"/>
</svg>
