<svg width="166" height="28" viewBox="0 0 166 28" fill="none" xmlns="http://www.w3.org/2000/svg">
<path d="M2.016 23H5.712V17.96H8.52C12.288 17.96 15.312 15.944 15.312 12.056V12.008C15.312 8.576 12.888 6.2 8.88 6.2H2.016V23ZM5.712 14.672V9.536H8.568C10.416 9.536 11.568 10.424 11.568 12.08V12.128C11.568 13.568 10.488 14.672 8.64 14.672H5.712ZM17.7353 8.72H21.5753V5.48H17.7353V8.72ZM17.8313 23H21.4793V10.136H17.8313V23ZM24.9054 23H28.5534V15.824C28.5534 14.096 29.4414 13.208 30.8334 13.208C32.2254 13.208 33.0414 14.096 33.0414 15.824V23H36.6894V14.672C36.6894 11.72 35.0814 9.896 32.3214 9.896C30.4734 9.896 29.3934 10.88 28.5534 11.96V10.136H24.9054V23ZM45.6186 26.888C48.1146 26.888 49.9626 26.36 51.1626 25.16C52.2426 24.08 52.7946 22.4 52.7946 20.096V10.136H49.1466V11.816C48.1626 10.736 46.9866 9.896 44.9946 9.896C42.0426 9.896 39.2826 12.056 39.2826 15.896V15.944C39.2826 19.76 41.9946 21.944 44.9946 21.944C46.9386 21.944 48.1146 21.152 49.1946 19.856V20.48C49.1946 22.784 48.0186 23.984 45.5226 23.984C43.8186 23.984 42.4986 23.552 41.1786 22.808L39.9306 25.544C41.5626 26.408 43.5306 26.888 45.6186 26.888ZM46.0506 18.92C44.2746 18.92 42.9306 17.72 42.9306 15.944V15.896C42.9306 14.144 44.2746 12.92 46.0506 12.92C47.8266 12.92 49.1946 14.144 49.1946 15.896V15.944C49.1946 17.696 47.8266 18.92 46.0506 18.92ZM56.7979 23H62.6299C67.9099 23 71.5579 19.328 71.5579 14.6V14.552C71.5579 9.824 67.9099 6.2 62.6299 6.2H56.7979V23ZM62.6299 7.952C66.8779 7.952 69.5899 10.88 69.5899 14.6V14.648C69.5899 18.368 66.8779 21.248 62.6299 21.248H58.6939V7.952H62.6299ZM75.3073 7.88H77.4193V5.84H75.3073V7.88ZM75.4273 23H77.2753V10.592H75.4273V23ZM81.564 23H83.412V18.056C83.412 14.312 85.62 12.368 88.332 12.368H88.476V10.376C86.124 10.28 84.324 11.768 83.412 13.832V10.592H81.564V23ZM96.1755 23.288C98.5275 23.288 100.04 22.352 101.288 20.96L100.136 19.928C99.1275 20.984 97.9275 21.68 96.2235 21.68C94.0155 21.68 92.1195 20.168 91.8555 17.48H101.696C101.72 17.264 101.72 17.12 101.72 16.88C101.72 13.256 99.6075 10.328 95.9355 10.328C92.5035 10.328 89.9835 13.208 89.9835 16.784V16.832C89.9835 20.672 92.7675 23.288 96.1755 23.288ZM91.8555 16.112C92.0955 13.688 93.7275 11.888 95.8875 11.888C98.3595 11.888 99.6555 13.856 99.8475 16.112H91.8555ZM110.547 23.288C112.875 23.288 114.363 22.28 115.611 20.888L114.435 19.784C113.451 20.84 112.227 21.632 110.643 21.632C108.051 21.632 106.083 19.496 106.083 16.808V16.76C106.083 14.096 108.003 11.96 110.523 11.96C112.203 11.96 113.307 12.8 114.291 13.832L115.515 12.536C114.363 11.312 112.899 10.328 110.547 10.328C106.923 10.328 104.187 13.304 104.187 16.808V16.856C104.187 20.336 106.923 23.288 110.547 23.288ZM122.818 23.216C123.706 23.216 124.402 23.024 125.05 22.688V21.104C124.402 21.416 123.874 21.536 123.25 21.536C122.002 21.536 121.162 20.984 121.162 19.472V12.224H125.098V10.592H121.162V6.848H119.314V10.592H117.586V12.224H119.314V19.712C119.314 22.232 120.826 23.216 122.818 23.216ZM133.681 23.288C137.425 23.288 140.185 20.312 140.185 16.808V16.76C140.185 13.256 137.449 10.328 133.729 10.328C129.985 10.328 127.249 13.304 127.249 16.808V16.856C127.249 20.36 129.961 23.288 133.681 23.288ZM133.729 21.632C131.113 21.632 129.145 19.472 129.145 16.808V16.76C129.145 14.144 130.993 11.96 133.681 11.96C136.297 11.96 138.289 14.144 138.289 16.808V16.856C138.289 19.472 136.417 21.632 133.729 21.632ZM143.533 23H145.381V18.056C145.381 14.312 147.589 12.368 150.301 12.368H150.445V10.376C148.093 10.28 146.293 11.768 145.381 13.832V10.592H143.533V23ZM158.563 20.936L154.051 10.592H152.011L157.651 22.952C156.907 24.704 156.211 25.28 155.107 25.28C154.315 25.28 153.763 25.136 153.163 24.824L152.539 26.288C153.379 26.696 154.147 26.912 155.179 26.912C157.051 26.912 158.251 25.976 159.307 23.408L164.515 10.592H162.547L158.563 20.936Z" fill="#051727"/>
</svg>
