<?xml version="1.0" encoding="UTF-8"?>
<svg xmlns="http://www.w3.org/2000/svg" xmlns:xlink="http://www.w3.org/1999/xlink" width="195px" height="28px" viewBox="0 0 193 28" version="1.1">
<g id="surface1">
<path style=" stroke:none;fill-rule:nonzero;fill:rgb(0%,0%,0%);fill-opacity:1;" d="M 19.988281 3.046875 L 19.988281 4.914062 L 24.691406 4.914062 L 24.691406 1.179688 L 19.988281 1.179688 Z M 19.988281 3.046875 "/>
<path style=" stroke:none;fill-rule:nonzero;fill:rgb(0%,0%,0%);fill-opacity:1;" d="M 113.863281 5.605469 L 113.863281 10.027344 L 113.058594 9.144531 C 112.589844 8.652344 111.6875 7.984375 110.984375 7.628906 C 109.867188 7.078125 109.511719 7 108.21875 7.019531 C 105.828125 7.058594 103.90625 7.984375 102.574219 9.792969 C 100.96875 11.996094 100.636719 15.730469 101.832031 18.285156 C 102.59375 19.878906 103.671875 21.019531 105.164062 21.746094 C 106.199219 22.257812 106.515625 22.316406 108.179688 22.316406 C 109.867188 22.316406 110.140625 22.257812 111.082031 21.746094 C 111.648438 21.433594 112.511719 20.746094 112.980469 20.234375 L 113.863281 19.289062 L 113.863281 22.21875 L 116.019531 22.21875 L 116.019531 1.179688 L 113.863281 1.179688 Z M 110.867188 9.574219 C 112.824219 10.5 113.863281 12.308594 113.863281 14.785156 C 113.863281 16.28125 113.589844 17.085938 112.667969 18.386719 C 111.472656 20.054688 108.90625 20.882812 106.984375 20.214844 C 101.832031 18.464844 102.261719 9.890625 107.554688 9.066406 C 108.808594 8.867188 109.648438 8.984375 110.867188 9.574219 Z M 110.867188 9.574219 "/>
<path style=" stroke:none;fill-rule:nonzero;fill:rgb(0%,0%,0%);fill-opacity:1;" d="M 1.175781 12.074219 L 1.175781 22.21875 L 5.683594 22.21875 L 5.683594 16.125 L 7.703125 16.125 C 10.328125 16.125 11.972656 15.828125 13.464844 15.121094 C 17.972656 12.957031 18.421875 6.113281 14.265625 3.285156 C 12.699219 2.242188 11.914062 2.105469 6.332031 2.003906 L 1.175781 1.925781 Z M 11.132812 6.429688 C 11.914062 6.84375 12.738281 8.160156 12.738281 9.046875 C 12.738281 9.871094 11.914062 11.265625 11.171875 11.679688 C 10.640625 11.996094 10.035156 12.09375 8.09375 12.152344 L 5.683594 12.230469 L 5.683594 5.839844 L 8.035156 5.957031 C 9.800781 6.035156 10.582031 6.15625 11.132812 6.429688 Z M 11.132812 6.429688 "/>
<path style=" stroke:none;fill-rule:nonzero;fill:rgb(0%,0%,0%);fill-opacity:1;" d="M 66.828125 12.09375 L 66.828125 22.238281 L 67.964844 22.179688 L 69.082031 22.121094 L 69.140625 17.734375 L 69.179688 13.371094 L 79.960938 13.371094 L 79.960938 11.207031 L 69.179688 11.207031 L 69.179688 4.128906 L 81.332031 4.128906 L 81.332031 1.964844 L 66.828125 1.964844 Z M 66.828125 12.09375 "/>
<path style=" stroke:none;fill-rule:nonzero;fill:rgb(0%,0%,0%);fill-opacity:1;" d="M 166.191406 5.015625 L 166.191406 7.273438 L 164.230469 7.273438 L 164.230469 9.242188 L 166.191406 9.242188 L 166.191406 14.097656 C 166.191406 16.851562 166.289062 19.289062 166.386719 19.703125 C 166.640625 20.585938 167.386719 21.53125 168.226562 21.964844 C 168.953125 22.355469 171.65625 22.414062 172.519531 22.0625 C 172.992188 21.863281 173.050781 21.746094 173.050781 20.84375 C 173.050781 19.859375 173.03125 19.859375 172.617188 20.074219 C 171.875 20.488281 169.816406 20.390625 169.304688 19.9375 C 168.445312 19.171875 168.347656 18.582031 168.347656 13.765625 L 168.347656 9.242188 L 173.050781 9.242188 L 173.050781 7.273438 L 168.347656 7.273438 L 168.347656 2.753906 L 166.191406 2.753906 Z M 166.191406 5.015625 "/>
<path style=" stroke:none;fill-rule:nonzero;fill:rgb(0%,0%,0%);fill-opacity:1;" d="M 35.707031 6.746094 C 35.335938 6.863281 34.628906 7.335938 34.101562 7.804688 C 33.589844 8.277344 33.101562 8.652344 33.042969 8.652344 C 32.984375 8.652344 32.925781 8.199219 32.925781 7.667969 L 32.925781 6.683594 L 28.613281 6.683594 L 28.613281 22.21875 L 32.925781 22.21875 L 32.925781 17.734375 C 32.925781 15.21875 33.023438 12.957031 33.140625 12.523438 C 33.453125 11.363281 34.238281 10.636719 35.277344 10.5 C 36.609375 10.324219 37.550781 10.773438 38.019531 11.835938 C 38.371094 12.605469 38.410156 13.15625 38.410156 17.441406 L 38.410156 22.21875 L 42.722656 22.21875 L 42.722656 16.554688 C 42.722656 10.246094 42.625 9.515625 41.507812 8.179688 C 40.3125 6.703125 37.765625 6.074219 35.707031 6.746094 Z M 35.707031 6.746094 "/>
<path style=" stroke:none;fill-rule:nonzero;fill:rgb(0%,0%,0%);fill-opacity:1;" d="M 50.152344 6.960938 C 48.621094 7.589844 47.996094 8.082031 47.171875 9.28125 C 45.449219 11.796875 45.449219 15.535156 47.152344 18.03125 C 48.464844 19.957031 50.660156 20.960938 53.1875 20.804688 C 54.777344 20.703125 55.835938 20.234375 57.070312 19.113281 L 57.871094 18.386719 L 57.734375 19.566406 C 57.539062 21.175781 56.933594 22.199219 55.855469 22.808594 C 54.285156 23.675781 51.210938 23.398438 48.386719 22.140625 C 47.976562 21.964844 46.503906 25.148438 46.878906 25.386719 C 47.015625 25.484375 47.878906 25.796875 48.796875 26.09375 C 50.328125 26.605469 50.699219 26.644531 53.503906 26.644531 C 56.207031 26.644531 56.675781 26.585938 57.753906 26.191406 C 59.382812 25.5625 60.421875 24.636719 61.125 23.144531 C 61.96875 21.414062 62.125 19.742188 62.125 12.761719 L 62.125 6.683594 L 57.617188 6.683594 L 57.617188 8.496094 L 56.65625 7.785156 C 55.363281 6.824219 54.304688 6.488281 52.640625 6.488281 C 51.640625 6.488281 50.933594 6.625 50.152344 6.960938 Z M 55.835938 10.519531 C 58.773438 12.054688 58.148438 16.398438 54.894531 17.125 C 52.953125 17.558594 51.210938 16.675781 50.464844 14.90625 C 50.054688 13.882812 50.09375 13.214844 50.660156 12.074219 C 51.132812 11.128906 51.796875 10.558594 52.875 10.203125 C 53.542969 9.988281 55.167969 10.164062 55.835938 10.519531 Z M 55.835938 10.519531 "/>
<path style=" stroke:none;fill-rule:nonzero;fill:rgb(0%,0%,0%);fill-opacity:1;" d="M 20.1875 14.453125 L 20.1875 22.21875 L 24.496094 22.21875 L 24.496094 6.683594 L 20.1875 6.683594 Z M 20.1875 14.453125 "/>
<path style=" stroke:none;fill-rule:nonzero;fill:rgb(0%,0%,0%);fill-opacity:1;" d="M 89.953125 7.078125 C 87.269531 7.550781 85.152344 9.515625 84.367188 12.269531 C 83.878906 14 84.035156 16.65625 84.703125 18.128906 C 85.386719 19.605469 86.742188 21.019531 88.132812 21.726562 C 89.582031 22.476562 92.285156 22.652344 93.914062 22.121094 C 95.070312 21.746094 97.402344 20.175781 97.402344 19.78125 C 97.402344 19.625 97.109375 19.289062 96.773438 19.035156 L 96.128906 18.542969 L 95.167969 19.289062 C 93.402344 20.644531 90.992188 20.921875 89.09375 19.976562 C 87.898438 19.386719 87.132812 18.503906 86.601562 17.085938 C 85.957031 15.414062 85.503906 15.535156 92.109375 15.535156 L 97.988281 15.535156 L 97.988281 14.375 C 97.988281 11.933594 96.734375 9.339844 94.972656 8.121094 C 93.617188 7.175781 91.679688 6.785156 89.953125 7.078125 Z M 93.03125 9.261719 C 94.382812 9.910156 95.402344 11.425781 95.734375 13.214844 L 95.871094 13.960938 L 86.230469 13.960938 L 86.230469 13.507812 C 86.230469 12.820312 87.289062 10.773438 88.015625 10.085938 C 88.386719 9.734375 88.992188 9.320312 89.367188 9.164062 C 90.367188 8.730469 92.011719 8.769531 93.03125 9.261719 Z M 93.03125 9.261719 "/>
<path style=" stroke:none;fill-rule:nonzero;fill:rgb(0%,0%,0%);fill-opacity:1;" d="M 125.976562 7.078125 C 123.800781 7.453125 121.898438 8.964844 120.859375 11.167969 C 120.273438 12.40625 120.234375 12.625 120.234375 14.648438 C 120.234375 16.4375 120.3125 17.007812 120.683594 17.933594 C 121.292969 19.425781 122.644531 20.921875 124.132812 21.6875 C 125.269531 22.296875 125.425781 22.316406 127.582031 22.316406 C 130.167969 22.316406 130.855469 22.101562 132.65625 20.644531 L 133.714844 19.800781 L 132.992188 19.132812 L 132.265625 18.464844 L 131.5625 19.09375 C 129.933594 20.507812 127.308594 20.960938 125.425781 20.113281 C 123.976562 19.464844 122.78125 17.914062 122.390625 16.144531 L 122.25 15.535156 L 134.109375 15.535156 L 134.011719 13.902344 C 133.914062 12.054688 133.226562 10.265625 132.109375 8.984375 C 130.835938 7.53125 128.191406 6.726562 125.976562 7.078125 Z M 128.914062 9.164062 C 130.324219 9.753906 131.542969 11.425781 131.816406 13.15625 L 131.953125 13.960938 L 122.25 13.960938 L 122.390625 13.3125 C 123.09375 9.929688 126.132812 7.984375 128.914062 9.164062 Z M 128.914062 9.164062 "/>
<path style=" stroke:none;fill-rule:nonzero;fill:rgb(0%,0%,0%);fill-opacity:1;" d="M 181.613281 7.078125 C 179.417969 7.453125 177.558594 8.945312 176.519531 11.167969 C 175.929688 12.40625 175.890625 12.625 175.890625 14.746094 C 175.890625 16.792969 175.949219 17.125 176.421875 18.128906 C 177.105469 19.625 178.457031 21.039062 179.851562 21.726562 C 180.789062 22.199219 181.300781 22.316406 182.789062 22.375 C 184.945312 22.476562 186.160156 22.160156 187.726562 21.058594 C 189.277344 19.996094 189.375 19.761719 188.53125 19.074219 L 187.847656 18.503906 L 187.355469 18.976562 C 184.984375 21.195312 180.75 20.960938 179.046875 18.523438 C 178.574219 17.835938 177.949219 16.222656 177.949219 15.691406 C 177.949219 15.613281 180.59375 15.535156 183.828125 15.535156 L 189.707031 15.535156 L 189.707031 14.394531 C 189.707031 11.601562 188.296875 8.945312 186.238281 7.824219 C 185.472656 7.414062 183.121094 6.804688 182.652344 6.902344 C 182.59375 6.921875 182.144531 7 181.613281 7.078125 Z M 184.75 9.261719 C 186.101562 9.910156 187.121094 11.425781 187.453125 13.214844 L 187.589844 13.960938 L 177.910156 13.960938 L 178.046875 13.234375 C 178.359375 11.542969 179.691406 9.773438 181.085938 9.164062 C 182.082031 8.730469 183.730469 8.769531 184.75 9.261719 Z M 184.75 9.261719 "/>
<path style=" stroke:none;fill-rule:nonzero;fill:rgb(0%,0%,0%);fill-opacity:1;" d="M 143.867188 7.414062 C 143.023438 7.707031 141.339844 9.183594 140.652344 10.226562 C 140.359375 10.695312 140.339844 10.65625 140.339844 8.984375 L 140.320312 7.273438 L 137.96875 7.273438 L 137.96875 22.238281 L 139.105469 22.179688 L 140.222656 22.121094 L 140.320312 17.992188 C 140.398438 14.273438 140.457031 13.765625 140.851562 12.9375 C 141.789062 10.894531 143.261719 9.734375 145.21875 9.496094 L 146.199219 9.378906 L 146.199219 7.078125 L 145.476562 7.097656 C 145.0625 7.097656 144.339844 7.253906 143.867188 7.414062 Z M 143.867188 7.414062 "/>
<path style=" stroke:none;fill-rule:nonzero;fill:rgb(0%,0%,0%);fill-opacity:1;" d="M 152.472656 7.195312 C 151.746094 7.335938 149.453125 8.082031 149.277344 8.238281 C 149.160156 8.355469 149.589844 9.734375 149.804688 9.988281 C 149.84375 10.007812 150.375 9.851562 151.019531 9.613281 C 152.472656 9.105469 154.84375 8.925781 155.960938 9.222656 C 157.605469 9.675781 158.742188 11.207031 158.742188 12.976562 C 158.742188 13.546875 158.703125 13.605469 158.3125 13.488281 C 157.175781 13.175781 154.609375 12.9375 153.351562 13.035156 C 149.53125 13.332031 147.296875 15.632812 147.925781 18.660156 C 148.21875 20.015625 148.945312 20.960938 150.335938 21.726562 C 151.316406 22.277344 151.550781 22.316406 153.351562 22.316406 C 155.605469 22.316406 156.566406 21.984375 157.9375 20.746094 L 158.742188 20.015625 L 158.742188 22.21875 L 160.917969 22.21875 L 160.839844 16.753906 C 160.761719 10.695312 160.703125 10.324219 159.488281 8.964844 C 158.410156 7.707031 157.117188 7.214844 154.824219 7.15625 C 153.804688 7.136719 152.746094 7.15625 152.472656 7.195312 Z M 157.527344 14.964844 L 158.742188 15.179688 L 158.742188 16.417969 C 158.742188 17.480469 158.664062 17.773438 158.117188 18.601562 C 157.234375 19.917969 156.136719 20.488281 154.292969 20.605469 C 151.667969 20.785156 150.121094 19.703125 150.121094 17.695312 C 150.121094 15.042969 152.628906 14.117188 157.527344 14.964844 Z M 157.527344 14.964844 "/>
</g>
</svg>
