<svg width="203" height="28" viewBox="0 0 203 28" fill="none" xmlns="http://www.w3.org/2000/svg">
<path d="M2.016 23H5.712V17.96H8.52C12.288 17.96 15.312 15.944 15.312 12.056V12.008C15.312 8.576 12.888 6.2 8.88 6.2H2.016V23ZM5.712 14.672V9.536H8.568C10.416 9.536 11.568 10.424 11.568 12.08V12.128C11.568 13.568 10.488 14.672 8.64 14.672H5.712ZM17.7353 8.72H21.5753V5.48H17.7353V8.72ZM17.8313 23H21.4793V10.136H17.8313V23ZM24.9054 23H28.5534V15.824C28.5534 14.096 29.4414 13.208 30.8334 13.208C32.2254 13.208 33.0414 14.096 33.0414 15.824V23H36.6894V14.672C36.6894 11.72 35.0814 9.896 32.3214 9.896C30.4734 9.896 29.3934 10.88 28.5534 11.96V10.136H24.9054V23ZM45.6186 26.888C48.1146 26.888 49.9626 26.36 51.1626 25.16C52.2426 24.08 52.7946 22.4 52.7946 20.096V10.136H49.1466V11.816C48.1626 10.736 46.9866 9.896 44.9946 9.896C42.0426 9.896 39.2826 12.056 39.2826 15.896V15.944C39.2826 19.76 41.9946 21.944 44.9946 21.944C46.9386 21.944 48.1146 21.152 49.1946 19.856V20.48C49.1946 22.784 48.0186 23.984 45.5226 23.984C43.8186 23.984 42.4986 23.552 41.1786 22.808L39.9306 25.544C41.5626 26.408 43.5306 26.888 45.6186 26.888ZM46.0506 18.92C44.2746 18.92 42.9306 17.72 42.9306 15.944V15.896C42.9306 14.144 44.2746 12.92 46.0506 12.92C47.8266 12.92 49.1946 14.144 49.1946 15.896V15.944C49.1946 17.696 47.8266 18.92 46.0506 18.92ZM64.5979 23.288C69.7819 23.288 73.5499 19.376 73.5499 14.6V14.552C73.5499 9.776 69.8299 5.912 64.6459 5.912C59.4619 5.912 55.6939 9.824 55.6939 14.6V14.648C55.6939 19.424 59.4139 23.288 64.5979 23.288ZM64.6459 19.88C61.6699 19.88 59.5579 17.48 59.5579 14.6V14.552C59.5579 11.672 61.6219 9.32 64.5979 9.32C67.5739 9.32 69.6859 11.72 69.6859 14.6V14.648C69.6859 17.528 67.6219 19.88 64.6459 19.88ZM76.4445 23H80.0925V15.824C80.0925 14.096 80.9805 13.208 82.3725 13.208C83.7645 13.208 84.5805 14.096 84.5805 15.824V23H88.2285V14.672C88.2285 11.72 86.6205 9.896 83.8605 9.896C82.0125 9.896 80.9325 10.88 80.0925 11.96V10.136H76.4445V23ZM97.4936 23.288C99.8216 23.288 101.55 22.376 102.75 20.888L100.662 19.04C99.6536 19.976 98.7656 20.36 97.5416 20.36C95.9096 20.36 94.7576 19.496 94.3976 17.84H103.35C103.374 17.504 103.398 17.168 103.398 16.88C103.398 13.232 101.43 9.896 97.1336 9.896C93.3896 9.896 90.7736 12.92 90.7736 16.592V16.64C90.7736 20.576 93.6296 23.288 97.4936 23.288ZM94.3496 15.56C94.6376 13.904 95.6216 12.824 97.1336 12.824C98.6696 12.824 99.6296 13.928 99.8456 15.56H94.3496ZM114.056 23H119.888C125.168 23 128.816 19.328 128.816 14.6V14.552C128.816 9.824 125.168 6.2 119.888 6.2H114.056V23ZM119.888 7.952C124.136 7.952 126.848 10.88 126.848 14.6V14.648C126.848 18.368 124.136 21.248 119.888 21.248H115.952V7.952H119.888ZM136.213 23.264C138.397 23.264 139.837 22.256 140.701 21.128V23H142.477V15.416C142.477 13.832 142.045 12.632 141.205 11.792C140.293 10.88 138.949 10.424 137.197 10.424C135.397 10.424 134.053 10.832 132.685 11.456L133.237 12.968C134.389 12.44 135.541 12.056 137.005 12.056C139.333 12.056 140.701 13.208 140.701 15.44V15.872C139.597 15.56 138.469 15.344 136.885 15.344C133.741 15.344 131.581 16.736 131.581 19.352V19.4C131.581 21.944 133.909 23.264 136.213 23.264ZM136.573 21.8C134.893 21.8 133.453 20.888 133.453 19.328V19.28C133.453 17.72 134.749 16.712 137.077 16.712C138.589 16.712 139.813 16.976 140.725 17.24V18.44C140.725 20.408 138.853 21.8 136.573 21.8ZM152.512 23.12H154.192L161.416 6.2H159.376L153.376 20.672L147.4 6.2H145.288L152.512 23.12ZM163.995 7.88H166.107V5.84H163.995V7.88ZM164.115 23H165.963V10.592H164.115V23ZM170.252 23H172.1V15.896C172.1 13.568 173.684 12.008 175.82 12.008C178.004 12.008 179.252 13.448 179.252 15.752V23H181.1V15.296C181.1 12.344 179.348 10.328 176.348 10.328C174.212 10.328 172.916 11.408 172.1 12.752V10.592H170.252V23ZM190.633 23.288C192.961 23.288 194.449 22.28 195.697 20.888L194.521 19.784C193.537 20.84 192.313 21.632 190.729 21.632C188.137 21.632 186.169 19.496 186.169 16.808V16.76C186.169 14.096 188.089 11.96 190.609 11.96C192.289 11.96 193.393 12.8 194.377 13.832L195.601 12.536C194.449 11.312 192.985 10.328 190.633 10.328C187.009 10.328 184.273 13.304 184.273 16.808V16.856C184.273 20.336 187.009 23.288 190.633 23.288ZM198.8 7.88H200.912V5.84H198.8V7.88ZM198.92 23H200.768V10.592H198.92V23Z" fill="#051727"/>
</svg>
