<svg width="211" height="28" viewBox="0 0 211 28" fill="none" xmlns="http://www.w3.org/2000/svg">
<path d="M2.016 23H5.712V17.96H8.52C12.288 17.96 15.312 15.944 15.312 12.056V12.008C15.312 8.576 12.888 6.2 8.88 6.2H2.016V23ZM5.712 14.672V9.536H8.568C10.416 9.536 11.568 10.424 11.568 12.08V12.128C11.568 13.568 10.488 14.672 8.64 14.672H5.712ZM17.7353 8.72H21.5753V5.48H17.7353V8.72ZM17.8313 23H21.4793V10.136H17.8313V23ZM24.9054 23H28.5534V15.824C28.5534 14.096 29.4414 13.208 30.8334 13.208C32.2254 13.208 33.0414 14.096 33.0414 15.824V23H36.6894V14.672C36.6894 11.72 35.0814 9.896 32.3214 9.896C30.4734 9.896 29.3934 10.88 28.5534 11.96V10.136H24.9054V23ZM45.6186 26.888C48.1146 26.888 49.9626 26.36 51.1626 25.16C52.2426 24.08 52.7946 22.4 52.7946 20.096V10.136H49.1466V11.816C48.1626 10.736 46.9866 9.896 44.9946 9.896C42.0426 9.896 39.2826 12.056 39.2826 15.896V15.944C39.2826 19.76 41.9946 21.944 44.9946 21.944C46.9386 21.944 48.1146 21.152 49.1946 19.856V20.48C49.1946 22.784 48.0186 23.984 45.5226 23.984C43.8186 23.984 42.4986 23.552 41.1786 22.808L39.9306 25.544C41.5626 26.408 43.5306 26.888 45.6186 26.888ZM46.0506 18.92C44.2746 18.92 42.9306 17.72 42.9306 15.944V15.896C42.9306 14.144 44.2746 12.92 46.0506 12.92C47.8266 12.92 49.1946 14.144 49.1946 15.896V15.944C49.1946 17.696 47.8266 18.92 46.0506 18.92ZM64.5979 23.288C69.7819 23.288 73.5499 19.376 73.5499 14.6V14.552C73.5499 9.776 69.8299 5.912 64.6459 5.912C59.4619 5.912 55.6939 9.824 55.6939 14.6V14.648C55.6939 19.424 59.4139 23.288 64.5979 23.288ZM64.6459 19.88C61.6699 19.88 59.5579 17.48 59.5579 14.6V14.552C59.5579 11.672 61.6219 9.32 64.5979 9.32C67.5739 9.32 69.6859 11.72 69.6859 14.6V14.648C69.6859 17.528 67.6219 19.88 64.6459 19.88ZM76.4445 23H80.0925V15.824C80.0925 14.096 80.9805 13.208 82.3725 13.208C83.7645 13.208 84.5805 14.096 84.5805 15.824V23H88.2285V14.672C88.2285 11.72 86.6205 9.896 83.8605 9.896C82.0125 9.896 80.9325 10.88 80.0925 11.96V10.136H76.4445V23ZM97.4936 23.288C99.8216 23.288 101.55 22.376 102.75 20.888L100.662 19.04C99.6536 19.976 98.7656 20.36 97.5416 20.36C95.9096 20.36 94.7576 19.496 94.3976 17.84H103.35C103.374 17.504 103.398 17.168 103.398 16.88C103.398 13.232 101.43 9.896 97.1336 9.896C93.3896 9.896 90.7736 12.92 90.7736 16.592V16.64C90.7736 20.576 93.6296 23.288 97.4936 23.288ZM94.3496 15.56C94.6376 13.904 95.6216 12.824 97.1336 12.824C98.6696 12.824 99.6296 13.928 99.8456 15.56H94.3496ZM119.816 23.24C123.152 23.24 125.552 21.368 125.552 18.488V18.44C125.552 15.872 123.824 14.504 120.08 13.688C116.384 12.896 115.52 12.008 115.52 10.424V10.376C115.52 8.864 116.912 7.664 119.096 7.664C120.824 7.664 122.384 8.216 123.944 9.488L125.048 8.024C123.344 6.656 121.592 5.96 119.144 5.96C115.952 5.96 113.624 7.904 113.624 10.544V10.592C113.624 13.352 115.4 14.6 119.264 15.44C122.792 16.184 123.632 17.072 123.632 18.632V18.68C123.632 20.336 122.144 21.536 119.888 21.536C117.56 21.536 115.88 20.744 114.128 19.16L112.952 20.552C114.968 22.352 117.152 23.24 119.816 23.24ZM134.519 23.288C136.871 23.288 138.383 22.352 139.631 20.96L138.479 19.928C137.471 20.984 136.271 21.68 134.567 21.68C132.359 21.68 130.463 20.168 130.199 17.48H140.039C140.063 17.264 140.063 17.12 140.063 16.88C140.063 13.256 137.951 10.328 134.279 10.328C130.847 10.328 128.327 13.208 128.327 16.784V16.832C128.327 20.672 131.111 23.288 134.519 23.288ZM130.199 16.112C130.439 13.688 132.071 11.888 134.231 11.888C136.703 11.888 137.999 13.856 138.191 16.112H130.199ZM143.298 23H145.146V18.056C145.146 14.312 147.354 12.368 150.066 12.368H150.21V10.376C147.858 10.28 146.058 11.768 145.146 13.832V10.592H143.298V23ZM157.177 23.096H158.809L164.209 10.592H162.217L158.017 20.888L153.841 10.592H151.801L157.177 23.096ZM167.159 7.88H169.271V5.84H167.159V7.88ZM167.279 23H169.127V10.592H167.279V23ZM179.008 23.288C181.336 23.288 182.824 22.28 184.072 20.888L182.896 19.784C181.912 20.84 180.688 21.632 179.104 21.632C176.512 21.632 174.544 19.496 174.544 16.808V16.76C174.544 14.096 176.464 11.96 178.984 11.96C180.664 11.96 181.768 12.8 182.752 13.832L183.976 12.536C182.824 11.312 181.36 10.328 179.008 10.328C175.384 10.328 172.648 13.304 172.648 16.808V16.856C172.648 20.336 175.384 23.288 179.008 23.288ZM192.199 23.288C194.551 23.288 196.063 22.352 197.311 20.96L196.159 19.928C195.151 20.984 193.951 21.68 192.247 21.68C190.039 21.68 188.143 20.168 187.879 17.48H197.719C197.743 17.264 197.743 17.12 197.743 16.88C197.743 13.256 195.631 10.328 191.959 10.328C188.527 10.328 186.007 13.208 186.007 16.784V16.832C186.007 20.672 188.791 23.288 192.199 23.288ZM187.879 16.112C188.119 13.688 189.751 11.888 191.911 11.888C194.383 11.888 195.679 13.856 195.871 16.112H187.879ZM205.082 23.24C207.554 23.24 209.498 21.872 209.498 19.52V19.472C209.498 17.24 207.434 16.496 205.514 15.92C203.858 15.416 202.322 14.96 202.322 13.784V13.736C202.322 12.704 203.258 11.936 204.722 11.936C205.922 11.936 207.242 12.392 208.394 13.136L209.234 11.744C207.962 10.904 206.282 10.376 204.77 10.376C202.322 10.376 200.546 11.792 200.546 13.928V13.976C200.546 16.256 202.706 16.928 204.65 17.48C206.282 17.936 207.746 18.416 207.746 19.664V19.712C207.746 20.912 206.666 21.68 205.178 21.68C203.714 21.68 202.226 21.104 200.882 20.096L199.946 21.416C201.338 22.544 203.306 23.24 205.082 23.24Z" fill="#051727"/>
</svg>
